<svg width="18" height="19" viewBox="0 0 18 19" fill="none" xmlns="http://www.w3.org/2000/svg">
<path d="M9.00039 0C6.61433 0.0025807 4.32674 0.95158 2.63955 2.63878C0.952353 4.32597 0.00335288 6.61356 0.000772183 8.99961C-0.0929738 16.1798 8.36966 20.5709 14.1752 16.362C14.2968 16.2774 14.4006 16.1695 14.4804 16.0446C14.5602 15.9197 14.6146 15.7802 14.6404 15.6342C14.6661 15.4882 14.6628 15.3386 14.6305 15.1939C14.5983 15.0492 14.5377 14.9123 14.4524 14.7911C14.367 14.6699 14.2586 14.5667 14.1332 14.4876C14.0079 14.4084 13.8682 14.3548 13.722 14.3298C13.5759 14.3049 13.4263 14.309 13.2818 14.3421C13.1373 14.3751 13.0007 14.4364 12.88 14.5224C8.56541 17.6857 2.14793 14.3589 2.25068 8.99961C2.60466 0.0524972 15.3969 0.053997 15.7501 8.99961V10.1246C15.7501 10.4229 15.6316 10.7091 15.4206 10.92C15.2096 11.131 14.9235 11.2495 14.6251 11.2495C14.3268 11.2495 14.0407 11.131 13.8297 10.92C13.6187 10.7091 13.5002 10.4229 13.5002 10.1246V8.99961C13.3112 3.05312 4.68882 3.05387 4.50058 8.99961C4.50807 9.87169 4.7681 10.7229 5.24922 11.4503C5.73034 12.1777 6.41193 12.7501 7.21153 13.0982C8.01114 13.4464 8.8945 13.5554 9.75474 13.412C10.615 13.2687 11.4153 12.8791 12.0588 12.2905C12.5055 12.8136 13.1014 13.1878 13.7667 13.3628C14.432 13.5378 15.1348 13.5053 15.7811 13.2697C16.4275 13.0341 16.9863 12.6066 17.3829 12.0444C17.7795 11.4823 17.9948 10.8125 18 10.1246V8.99961C17.9974 6.61356 17.0484 4.32597 15.3612 2.63878C13.674 0.95158 11.3864 0.0025807 9.00039 0ZM9.00039 11.2495C8.40368 11.2495 7.8314 11.0125 7.40946 10.5905C6.98753 10.1686 6.75048 9.59632 6.75048 8.99961C6.75048 8.4029 6.98753 7.83063 7.40946 7.40869C7.8314 6.98675 8.40368 6.74971 9.00039 6.74971C9.5971 6.74971 10.1694 6.98675 10.5913 7.40869C11.0132 7.83063 11.2503 8.4029 11.2503 8.99961C11.2503 9.59632 11.0132 10.1686 10.5913 10.5905C10.1694 11.0125 9.5971 11.2495 9.00039 11.2495Z" fill="#EC4969"/>
</svg>
