<svg width="18" height="18" viewBox="0 0 18 18" fill="none" xmlns="http://www.w3.org/2000/svg">
<path d="M17.3395 7.3887L13.6257 3.67487L12.0343 5.26619L14.6258 7.85462H4.96005V10.1054H14.6258L12.0373 12.6939L13.6287 14.2852L17.3425 10.5713C17.7641 10.1489 18.0006 9.57624 18 8.9794C17.9995 8.38257 17.7619 7.81039 17.3395 7.3887Z" fill="#EC4969"/>
<path d="M7.4937 15.3573C7.4937 15.4568 7.45417 15.5522 7.38382 15.6225C7.31347 15.6929 7.21805 15.7324 7.11856 15.7324H2.62595C2.52645 15.7324 2.43104 15.6929 2.36068 15.6225C2.29033 15.5522 2.25081 15.4568 2.25081 15.3573V2.62595C2.25081 2.52645 2.29033 2.43104 2.36068 2.36068C2.43104 2.29033 2.52645 2.25081 2.62595 2.25081H7.11856C7.21805 2.25081 7.31347 2.29033 7.38382 2.36068C7.45417 2.43104 7.4937 2.52645 7.4937 2.62595V6.23775H9.74451V2.62595C9.74352 1.92981 9.46653 1.26246 8.97429 0.770218C8.48204 0.277972 7.8147 0.00099236 7.11856 0H2.62595C1.92981 0.00099236 1.26246 0.277972 0.770218 0.770218C0.277972 1.26246 0.00099236 1.92981 0 2.62595V15.3573C0 16.0537 0.276661 16.7216 0.769121 17.2141C1.26158 17.7066 1.9295 17.9832 2.62595 17.9832H7.11856C7.81501 17.9832 8.48293 17.7066 8.97539 17.2141C9.46785 16.7216 9.74451 16.0537 9.74451 15.3573V11.7432H7.4937V15.3573Z" fill="#EC4969"/>
</svg>
