<svg width="52" height="52" viewBox="0 0 52 52" fill="none" xmlns="http://www.w3.org/2000/svg">
<rect width="52" height="52" rx="5" fill="#EC4969"/>
<path d="M16 11H19.75C22.5114 11 24.75 13.2386 24.75 16V19.75C24.75 22.5114 22.5114 24.75 19.75 24.75H16C13.2386 24.75 11 22.5114 11 19.75V16C11 13.2386 13.2386 11 16 11Z" fill="white"/>
<path d="M16 27.25H19.75C22.5114 27.25 24.75 29.4886 24.75 32.25V36C24.75 38.7614 22.5114 41 19.75 41H16C13.2386 41 11 38.7614 11 36V32.25C11 29.4886 13.2386 27.25 16 27.25Z" fill="white"/>
<path d="M32.25 27.25H36C38.7614 27.25 41 29.4886 41 32.25V36C41 38.7614 38.7614 41 36 41H32.25C29.4886 41 27.25 38.7614 27.25 36V32.25C27.2499 29.4886 29.4885 27.25 32.25 27.25Z" fill="white"/>
<path d="M28.5 19.75H32.25V23.5C32.25 24.1903 32.8096 24.75 33.5 24.75C34.1903 24.75 34.7499 24.1903 34.7499 23.5V19.75H38.4999C39.1903 19.75 39.7499 19.1903 39.7499 18.5C39.7499 17.8096 39.1903 17.25 38.4999 17.25H34.7499V13.5C34.7499 12.8097 34.1903 12.25 33.5 12.25C32.8096 12.25 32.25 12.8097 32.25 13.5V17.25H28.5C27.8096 17.25 27.25 17.8096 27.25 18.5C27.25 19.1903 27.8096 19.75 28.5 19.75Z" fill="white"/>
</svg>
