<svg width="18" height="19" viewBox="0 0 18 19" fill="none" xmlns="http://www.w3.org/2000/svg">
<path d="M8.96059 0C6.74945 0.00650025 4.61693 0.82093 2.96437 2.29001L1.96023 1.28587C1.85488 1.18055 1.72067 1.10884 1.57457 1.07978C1.42847 1.05073 1.27703 1.06565 1.1394 1.12265C1.00178 1.17965 0.88414 1.27618 0.801365 1.40003C0.71859 1.52388 0.674392 1.66949 0.674361 1.81845V5.27306C0.674361 5.47284 0.753725 5.66444 0.894995 5.80571C1.03627 5.94698 1.22787 6.02635 1.42765 6.02635H4.88226C5.03122 6.02632 5.17683 5.98212 5.30068 5.89934C5.42453 5.81657 5.52106 5.69893 5.57806 5.56131C5.63506 5.42368 5.64998 5.27224 5.62093 5.12614C5.59187 4.98004 5.52016 4.84583 5.41484 4.74048L4.55985 3.88549C5.55759 3.03317 6.78123 2.48871 8.08233 2.31818C9.38342 2.14764 10.706 2.35836 11.8897 2.92476C13.0734 3.49116 14.0673 4.38891 14.7508 5.50908C15.4343 6.62925 15.778 7.9237 15.7402 9.23538C15.6918 10.9302 15.01 12.5453 13.8295 13.7623C12.6489 14.9792 11.0552 15.7096 9.36263 15.8095C7.67007 15.9093 6.00153 15.3714 4.68606 14.3017C3.37059 13.232 2.50367 11.7082 2.25628 10.0309C2.22095 9.75813 2.08801 9.50743 1.88207 9.32517C1.67613 9.14291 1.41113 9.04143 1.13613 9.03952C0.976555 9.03746 0.818378 9.06948 0.672165 9.13343C0.525952 9.19738 0.395069 9.2918 0.288259 9.41038C0.18145 9.52895 0.101172 9.66895 0.0527897 9.82103C0.00440721 9.97311 -0.0109664 10.1338 0.00769582 10.2923C0.321225 12.5114 1.44678 14.5354 3.16656 15.9726C4.88633 17.4097 7.07807 18.1579 9.31765 18.0723C11.5834 17.9631 13.7272 17.014 15.3311 15.4101C16.9351 13.8061 17.8842 11.6623 17.9933 9.39658C18.04 8.18071 17.841 6.9679 17.4083 5.83069C16.9755 4.69348 16.3178 3.65523 15.4746 2.77803C14.6313 1.90082 13.6199 1.20269 12.5006 0.725361C11.3814 0.248037 10.1774 0.00133204 8.96059 0Z" fill="#EC4969"/>
<path d="M8.58395 5.27307C8.28427 5.27307 7.99687 5.39212 7.78496 5.60402C7.57306 5.81593 7.45401 6.10333 7.45401 6.40301V9.6369C7.4541 10.0364 7.61288 10.4196 7.89544 10.7021L9.2461 12.0527C9.4592 12.2585 9.74463 12.3724 10.0409 12.3699C10.3372 12.3673 10.6206 12.2484 10.8301 12.0389C11.0396 11.8294 11.1584 11.546 11.161 11.2498C11.1636 10.9535 11.0497 10.6681 10.8438 10.455L9.71389 9.32504V6.40301C9.71389 6.10333 9.59484 5.81593 9.38294 5.60402C9.17103 5.39212 8.88363 5.27307 8.58395 5.27307Z" fill="#EC4969"/>
</svg>
